<?xml version="1.0" standalone="no"?>
<!DOCTYPE svg PUBLIC "-//W3C//DTD SVG 20010904//EN"
 "http://www.w3.org/TR/2001/REC-SVG-20010904/DTD/svg10.dtd">
<svg version="1.0" xmlns="http://www.w3.org/2000/svg"
 width="512.000000pt" height="512.000000pt" viewBox="0 0 512.000000 512.000000"
 preserveAspectRatio="xMidYMid meet">
<metadata>
Created by potrace 1.14, written by Peter Selinger 2001-2017
</metadata>
<g transform="translate(0.000000,512.000000) scale(0.100000,-0.100000)"
fill="#000000" stroke="none">
<path d="M1818 4935 c-2 -2 -15 -6 -28 -9 -14 -3 -36 -7 -50 -10 -82 -18 -132
-82 -119 -151 7 -40 44 -114 57 -116 4 0 16 -2 27 -3 11 -2 61 -19 111 -39 50
-21 104 -38 119 -39 17 -2 31 -11 40 -28 7 -14 47 -56 89 -94 60 -54 77 -75
82 -104 3 -20 12 -46 19 -58 14 -21 13 -21 -153 -27 -262 -9 -430 -46 -607
-132 -60 -29 -137 -75 -170 -102 -33 -27 -96 -66 -140 -86 -169 -80 -336 -211
-463 -362 -44 -54 -133 -193 -169 -266 -95 -195 -180 -488 -210 -724 -16 -122
-8 -488 11 -546 3 -8 7 -32 10 -54 5 -38 9 -57 21 -105 3 -11 7 -28 9 -38 3
-9 11 -36 20 -59 8 -24 13 -43 9 -43 -3 0 0 -7 7 -15 7 -8 9 -15 5 -15 -4 0
-3 -6 2 -12 5 -7 17 -35 27 -63 10 -27 29 -71 42 -97 14 -27 23 -48 19 -48 -3
0 6 -18 20 -40 14 -22 22 -40 18 -40 -5 0 -3 -4 3 -8 6 -4 19 -23 29 -42 10
-19 37 -65 61 -102 24 -38 41 -68 37 -68 -4 0 2 -7 13 -15 10 -8 15 -15 9 -15
-6 0 -5 -3 1 -8 10 -7 174 -220 174 -227 0 -2 37 -41 83 -87 98 -101 211 -192
310 -250 40 -23 74 -45 77 -48 22 -23 276 -116 370 -135 19 -3 71 -20 115 -37
44 -16 89 -32 100 -34 104 -20 152 -26 236 -26 140 0 218 14 354 61 33 12 66
19 75 15 41 -16 186 -34 273 -34 70 0 114 5 155 19 45 15 67 17 102 11 25 -5
99 -7 165 -5 113 4 160 13 319 62 10 3 58 27 106 53 47 26 97 51 111 55 35 11
214 102 263 133 90 58 195 143 268 218 76 78 191 220 209 259 5 11 20 38 34
60 39 63 150 292 183 375 16 41 33 84 37 95 5 11 9 23 10 28 2 4 4 9 5 12 1 3
3 8 4 13 1 4 5 13 9 20 5 6 6 12 4 12 -3 0 1 21 9 48 24 76 56 223 61 277 2
28 8 64 12 80 8 30 5 373 -3 445 -2 19 -9 57 -15 84 -7 27 -9 51 -7 54 3 2 1
13 -4 23 -6 10 -12 30 -14 46 -2 15 -6 35 -9 43 -15 38 -35 120 -30 120 3 0 0
6 -6 13 -6 8 -12 22 -14 33 -2 10 -8 28 -14 39 -14 27 -38 98 -35 108 1 4 -2
7 -6 7 -8 0 -34 64 -32 76 1 4 -3 10 -8 13 -8 5 -99 178 -104 198 -1 5 -10 17
-20 27 -9 10 -15 23 -12 28 3 4 1 8 -4 8 -5 0 -15 12 -23 28 -8 15 -19 32 -25
37 -5 6 -36 43 -68 82 -139 174 -322 308 -538 395 -57 22 -105 44 -108 47 -9
12 -105 78 -155 107 -205 119 -580 155 -926 89 l-35 -7 -38 79 c-41 85 -70
137 -101 178 -11 14 -29 38 -40 53 -11 14 -52 58 -91 97 -95 95 -226 169 -354
203 -20 5 -197 11 -202 7z m1479 -616 c39 -7 64 -17 68 -26 5 -14 -6 -15 -87
-10 -51 3 -133 14 -183 24 l-90 18 60 6 c68 7 142 3 232 -12z m337 -241 c347
-86 660 -328 831 -643 44 -80 108 -225 102 -231 -3 -3 -122 119 -152 156 -11
14 -61 77 -112 140 -217 273 -456 455 -748 570 -44 18 -82 34 -85 37 -8 8 76
-6 164 -29z m-2200 -112 c-3 -8 -58 -54 -122 -102 -137 -103 -348 -306 -435
-418 -121 -155 -246 -301 -278 -325 -17 -13 -47 -27 -64 -31 l-33 -7 18 51
c131 382 444 691 831 820 89 30 90 30 83 12z m1206 -233 c48 -21 121 -102 144
-160 10 -26 34 -73 52 -103 39 -66 54 -123 30 -114 -11 4 -16 1 -16 -11 0 -10
4 -13 13 -9 8 5 8 2 -2 -9 -7 -9 -19 -17 -25 -17 -6 0 -26 -14 -45 -31 -19
-16 -42 -28 -50 -27 -8 2 -28 -9 -43 -24 -27 -27 -150 -73 -219 -82 -26 -3
-129 -57 -129 -67 0 -5 -8 -9 -17 -9 -10 0 -36 -19 -60 -42 -47 -46 -95 -56
-119 -24 -12 17 -14 16 -33 -3 -12 -12 -29 -22 -38 -23 -33 -2 -38 -4 -51 -12
-7 -4 -16 -6 -19 -2 -8 8 -30 -17 -37 -44 -14 -48 -29 -69 -57 -79 -16 -5 -30
-7 -33 -3 -11 19 -16 135 -8 198 21 154 114 382 169 409 11 6 28 17 37 25 15
11 18 11 22 -7 5 -17 10 -15 47 22 23 23 59 54 80 70 35 26 38 27 51 10 12
-17 13 -17 19 0 5 12 14 15 32 11 14 -4 25 -2 25 3 0 5 9 11 21 14 11 3 19 12
17 20 -4 19 59 107 76 107 8 0 19 6 26 14 22 28 75 27 140 -1z m-1041 -56
c-20 -18 -36 -39 -36 -47 -2 -25 -33 -134 -41 -140 -4 -3 -20 -32 -36 -65 -17
-33 -49 -86 -73 -118 -24 -31 -43 -61 -43 -65 0 -11 -59 -61 -92 -78 -15 -8
-28 -19 -28 -24 0 -6 -14 -10 -31 -10 -16 0 -28 4 -25 9 3 5 -6 12 -19 15 -65
16 -66 161 -3 265 29 47 107 131 123 131 6 0 20 9 30 20 9 10 20 18 24 18 7
-2 141 59 211 96 64 34 81 31 39 -7z m1994 -9 c9 -5 17 -18 17 -30 0 -12 -3
-18 -7 -15 -3 4 -12 2 -18 -3 -8 -7 -21 -2 -41 15 -16 14 -24 25 -19 25 6 0 3
5 -5 10 -19 13 46 11 73 -2z m122 -537 c-3 -6 16 -34 41 -62 97 -110 180 -259
214 -384 23 -85 25 -140 9 -217 -9 -44 -20 -61 -60 -99 -33 -31 -63 -50 -93
-58 -59 -15 -179 -13 -294 3 -79 11 -100 11 -135 -1 -79 -28 -193 -27 -337 2
-14 3 1 -4 33 -15 89 -30 208 -42 286 -29 84 14 65 16 216 -16 206 -43 334
-28 439 53 81 62 90 78 94 192 4 84 0 112 -21 187 -28 96 -58 167 -108 253
-17 30 -27 50 -21 45 28 -26 103 -174 131 -260 37 -111 48 -217 32 -296 -10
-45 -20 -64 -59 -102 -122 -120 -279 -142 -551 -77 -59 14 -87 17 -112 10 -51
-15 -187 -12 -254 5 -91 24 -145 46 -138 58 4 6 0 8 -10 4 -10 -3 -17 -2 -17
3 0 6 -3 9 -7 9 -56 -9 -39 13 49 67 180 108 297 225 333 333 13 39 28 58 76
96 65 51 152 148 220 244 24 34 45 61 47 61 2 0 1 -4 -3 -9z m-2190 -378 c33
-25 81 -56 107 -69 37 -19 53 -35 72 -72 51 -101 168 -190 353 -268 59 -26
110 -48 112 -50 3 -3 -3 -12 -14 -22 -13 -12 -16 -13 -11 -2 4 8 -2 4 -14 -10
-12 -14 -19 -20 -16 -14 3 6 -22 1 -55 -13 -97 -39 -193 -56 -286 -49 -69 4
-96 1 -170 -21 -280 -81 -406 -51 -464 113 -19 51 -21 73 -16 165 8 142 43
246 144 424 l45 80 77 -74 c42 -40 103 -93 136 -118z m-449 10 c-8 -15 -15
-25 -16 -21 0 12 23 58 27 54 3 -2 -2 -17 -11 -33z m-46 -124 c-36 -110 -54
-233 -47 -318 13 -139 43 -191 140 -240 120 -62 270 -53 457 25 73 31 101 37
200 44 113 8 208 33 288 74 18 9 32 14 32 11 0 -11 -140 -75 -197 -89 -34 -9
-96 -16 -138 -16 -65 0 -91 -6 -164 -35 -130 -52 -206 -69 -301 -70 -100 0
-165 20 -237 75 -40 29 -52 46 -71 100 -20 58 -22 79 -18 185 4 118 22 204 62
305 27 67 24 41 -6 -51z m1676 -592 c71 -73 153 -164 181 -202 56 -74 113
-173 95 -161 -6 4 -28 -2 -49 -12 -21 -11 -81 -29 -133 -42 -118 -27 -362 -31
-475 -7 -53 12 -72 13 -78 4 -19 -28 8 45 53 141 64 134 245 412 270 412 4 0
65 -60 136 -133z m1478 -58 c-4 -6 -8 -48 -10 -93 -9 -184 -51 -381 -104 -487
-11 -21 -18 -39 -15 -39 4 0 26 43 51 95 58 121 92 259 104 410 l9 120 -4
-125 c-5 -193 -60 -372 -163 -532 -40 -63 -57 -73 -48 -30 9 42 26 241 26 301
l0 54 -42 -37 c-24 -20 -82 -66 -130 -103 -76 -57 -88 -71 -93 -102 -13 -84
-49 -222 -78 -306 l-32 -90 -75 -43 c-95 -54 -156 -72 -241 -72 -56 0 -75 -4
-104 -25 -47 -31 -171 -78 -259 -98 l-69 -16 6 118 c4 64 4 146 1 182 l-6 65
-87 -13 c-47 -7 -164 -15 -259 -19 l-173 -7 5 -26 c3 -14 8 -51 11 -81 4 -30
15 -95 26 -145 10 -49 19 -93 19 -97 0 -24 -229 9 -322 46 -50 20 -65 22 -96
14 -61 -17 -177 -3 -274 32 l-87 31 -65 132 c-35 73 -75 165 -88 206 l-23 73
-75 38 c-41 21 -84 46 -95 55 -11 8 26 -7 81 -34 l101 -50 27 -85 c15 -47 53
-139 86 -205 l60 -119 70 -25 c108 -40 189 -53 260 -39 49 9 67 8 95 -4 50
-21 188 -51 267 -59 66 -6 66 -6 60 17 -3 12 -7 18 -9 12 -7 -20 -186 5 -282
37 -43 15 -70 18 -135 13 -93 -7 -177 10 -266 54 -52 26 -56 31 -104 127 -28
55 -66 142 -86 193 l-35 93 -113 54 c-62 30 -110 49 -106 43 4 -6 -15 2 -41
18 l-48 28 7 -50 c4 -27 23 -109 42 -183 19 -73 34 -136 34 -139 0 -3 -14 7
-31 24 -87 81 -188 248 -235 385 -25 74 -55 222 -53 263 0 11 9 -23 19 -76 10
-53 28 -128 40 -165 45 -136 145 -309 215 -373 17 -15 10 -3 -16 30 -24 30
-61 87 -81 125 -52 100 -128 344 -128 412 0 16 -6 35 -12 42 -7 7 44 -25 114
-72 141 -94 324 -191 439 -232 l76 -26 18 -57 c27 -88 101 -227 129 -246 29
-19 81 -30 216 -46 52 -7 108 -14 124 -17 27 -6 28 -4 23 23 -13 70 -16 109
-7 89 l9 -20 0 20 c0 11 -5 47 -12 80 l-13 60 261 0 c156 0 302 5 365 13 100
13 339 55 388 68 l22 6 0 -132 0 -132 33 7 c17 4 59 18 93 30 33 13 86 28 117
35 30 6 73 24 94 39 36 26 42 37 71 137 17 60 34 128 38 152 6 39 11 45 55 68
126 63 337 224 464 353 58 60 73 72 59 50z m-1295 -394 c-97 -53 -291 -75
-448 -51 -57 9 -105 17 -107 18 -1 2 93 3 209 4 183 0 221 3 282 21 85 25 98
26 64 8z m-762 -377 c-3 -8 -6 -5 -6 6 -1 11 2 17 5 13 3 -3 4 -12 1 -19z"/>
<path d="M3843 1540 c-101 -70 -102 -71 -108 -118 -17 -121 -85 -332 -119
-370 -11 -13 -58 -42 -103 -64 -72 -36 -94 -42 -166 -46 -66 -3 -92 -10 -132
-32 -57 -32 -220 -89 -265 -92 -17 -1 -30 -8 -30 -16 0 -10 9 -11 38 -6 62 12
202 62 256 92 42 24 67 30 141 35 82 5 97 9 190 56 l101 51 37 113 c34 105 63
224 69 291 2 24 16 39 69 75 74 52 137 100 129 100 -3 0 -51 -31 -107 -69z"/>
<path d="M3143 1295 c0 -44 2 -61 4 -37 2 23 2 59 0 80 -2 20 -4 1 -4 -43z"/>
<path d="M2840 1153 c-36 -7 -145 -18 -243 -25 -145 -10 -180 -10 -186 1 -6
10 -10 9 -15 -5 -6 -16 4 -17 151 -11 152 7 348 29 360 41 12 12 -4 12 -67 -1z"/>
</g>
</svg>
